<svg width="100" height="101" viewBox="0 0 100 101" fill="none" xmlns="http://www.w3.org/2000/svg">
<g id="Property 1=Couch, Property 2=Initial">
<g id="Group 93">
<path id="Vector" fill-rule="evenodd" clip-rule="evenodd" d="M9.64197 71.8979H15.3802V80.1032H9.64197V71.8979Z" fill="#253B54"/>
<path id="Vector_2" fill-rule="evenodd" clip-rule="evenodd" d="M84.6199 71.8979H90.3581V80.1032H84.6199V71.8979Z" fill="#253B54"/>
<path id="Vector_3" d="M12.8105 36.6716C13.7159 36.6771 14.6033 36.9267 15.3802 37.3945V32.2677C15.3802 29.3623 16.5273 26.5758 18.5693 24.5214C20.6113 22.4669 23.3808 21.3127 26.2686 21.3127H73.7314C76.6192 21.3127 79.3887 22.4669 81.4307 24.5214C83.4727 26.5758 84.6199 29.3623 84.6199 32.2677V37.4493C85.3967 36.9815 86.2841 36.7319 87.1895 36.7264H87.8864V32.3444C87.8864 28.5674 86.3951 24.945 83.7405 22.2742C81.0859 19.6035 77.4855 18.103 73.7314 18.103H26.2686C22.5145 18.103 18.9141 19.6035 16.2596 22.2742C13.605 24.945 12.1136 28.5674 12.1136 32.3444V36.7264L12.8105 36.6716Z" fill="#253B54"/>
<path id="Vector_4" d="M15.3802 71.5142H12.1136V74.8006H15.3802H84.6199H87.8864V71.5142H84.6199H15.3802Z" fill="#253B54"/>
<path id="Vector_5" d="M88.6159 38.6715C89.2884 38.6701 89.9545 38.8021 90.576 39.0604C91.1976 39.3186 91.7623 39.6978 92.2378 40.1762C92.7133 40.6546 93.0902 41.223 93.3468 41.8483C93.6035 42.4737 93.7349 43.1437 93.7335 43.8203V71.5144H6.26654V43.8312C6.2651 43.1547 6.39648 42.4846 6.65315 41.8593C6.90983 41.234 7.28674 40.6656 7.76224 40.1872C8.23773 39.7088 8.80247 39.3296 9.42401 39.0714C10.0456 38.8131 10.7117 38.681 11.3841 38.6825H12.8105C13.483 38.681 14.1491 38.8131 14.7706 39.0714C15.3922 39.3296 15.9569 39.7088 16.4324 40.1872C16.9079 40.6656 17.2848 41.234 17.5414 41.8593C17.7981 42.4846 17.9295 43.1547 17.9281 43.8312V57.8317H82.0719V43.8312C82.0719 42.4657 82.6111 41.156 83.5709 40.1904C84.5306 39.2248 85.8323 38.6825 87.1895 38.6825H88.6159V38.6715ZM88.6159 35.396H87.1895C84.9668 35.3989 82.8359 36.2884 81.2642 37.8697C79.6925 39.451 78.8083 41.595 78.8054 43.8312V54.5452H21.1946V43.8312C21.1946 41.5941 20.3113 39.4484 18.7389 37.8665C17.1666 36.2845 15.0341 35.396 12.8105 35.396H11.3841C9.16052 35.396 7.02798 36.2845 5.45565 37.8665C3.88333 39.4484 3 41.5941 3 43.8312V74.8118H97V43.8312C97 41.5941 96.1167 39.4484 94.5444 37.8665C92.9721 36.2845 90.8395 35.396 88.6159 35.396Z" fill="#253B54"/>
<path id="Vector_6" d="M88.6159 38.6714C89.2883 38.67 89.9544 38.802 90.576 39.0603C91.1975 39.3185 91.7622 39.6977 92.2377 40.1761C92.7132 40.6545 93.0901 41.2229 93.3468 41.8482C93.6035 42.4736 93.7349 43.1436 93.7334 43.8202V71.5143H6.26649V43.8311C6.26506 43.1546 6.39644 42.4845 6.65311 41.8592C6.90978 41.2339 7.28669 40.6655 7.76219 40.1871C8.23769 39.7087 8.80243 39.3295 9.42397 39.0712C10.0455 38.813 10.7116 38.6809 11.3841 38.6824H12.8105C13.4829 38.6809 14.149 38.813 14.7706 39.0712C15.3921 39.3295 15.9568 39.7087 16.4323 40.1871C16.9078 40.6655 17.2847 41.2339 17.5414 41.8592C17.7981 42.4845 17.9295 43.1546 17.928 43.8311V57.8316H82.0719V43.8311C82.0719 42.4656 82.6111 41.1559 83.5708 40.1903C84.5306 39.2247 85.8322 38.6824 87.1895 38.6824H88.6159" fill="#E2E8EE"/>
<path id="Vector_7" d="M34.1736 41.9527C36.1761 41.9527 37.7994 40.3195 37.7994 38.3047C37.7994 36.29 36.1761 34.6567 34.1736 34.6567C32.1711 34.6567 30.5477 36.29 30.5477 38.3047C30.5477 40.3195 32.1711 41.9527 34.1736 41.9527Z" fill="#253B54"/>
<path id="Vector_8" d="M65.8372 41.9527C67.8397 41.9527 69.463 40.3195 69.463 38.3047C69.463 36.29 67.8397 34.6567 65.8372 34.6567C63.8347 34.6567 62.2113 36.29 62.2113 38.3047C62.2113 40.3195 63.8347 41.9527 65.8372 41.9527Z" fill="#253B54"/>
</g>
</g>
</svg>
