<svg id="Layer_1" data-name="Layer 1" xmlns="http://www.w3.org/2000/svg" viewBox="0 0 75 75"><defs><style>.cls-1{fill:#fff;}.cls-1,.cls-4{fill-rule:evenodd;}.cls-2{fill:#253b54;}.cls-3{fill:#3063ff;}.cls-4{fill:#d6dfff;}</style></defs><path class="cls-1" d="M69.92,68.61H5.09V31.33H69.92Z"/><path class="cls-2" d="M70.85,69.54H4.16V30.4H70.85ZM6,67.69H69V32.25H6Z"/><path class="cls-2" d="M30.31,31.33H28.47V68.62h1.84Z"/><path class="cls-2" d="M69.92,58H29.39v1.85H69.92Z"/><path class="cls-3" d="M23.49,53.28A2.47,2.47,0,1,0,21,50.81,2.47,2.47,0,0,0,23.49,53.28Z"/><path class="cls-4" d="M67.61,11.27l2.51,18a5.25,5.25,0,0,1-.42,2.07,5.42,5.42,0,0,1-5,3.35,5.43,5.43,0,0,1-5.42-5.42,5.42,5.42,0,0,1-.41,2.07,5.72,5.72,0,0,1-1.18,1.77,5.52,5.52,0,0,1-1.77,1.17,5.43,5.43,0,0,1-7.5-5A5.42,5.42,0,0,1,48,31.34a5.72,5.72,0,0,1-1.18,1.77,5.58,5.58,0,0,1-1.76,1.17,5.51,5.51,0,0,1-2.08.41,5.43,5.43,0,0,1-5.43-5.42,5.42,5.42,0,0,1-.41,2.07A5.72,5.72,0,0,1,36,33.11a5.44,5.44,0,0,1-9.27-3.84,5.4,5.4,0,0,1-3.35,5,5.48,5.48,0,0,1-4.16,0,5.41,5.41,0,0,1-2.93-2.94,5.28,5.28,0,0,1-.42-2.07,5.4,5.4,0,0,1-3.35,5,5.51,5.51,0,0,1-2.08.41A5.41,5.41,0,0,1,5,29.27l2.49-18Z"/><path class="cls-2" d="M64.65,35.62a6.5,6.5,0,0,1-3.11-.82,6.36,6.36,0,0,1-2.32-2.23,6.4,6.4,0,0,1-5.43,3,6.5,6.5,0,0,1-3.11-.82,6.36,6.36,0,0,1-2.32-2.23,6.26,6.26,0,0,1-2.31,2.23,6.35,6.35,0,0,1-3.12.82,6.5,6.5,0,0,1-3.11-.82,6.36,6.36,0,0,1-2.32-2.23,6.26,6.26,0,0,1-2.31,2.23,6.32,6.32,0,0,1-3.12.82A6.5,6.5,0,0,1,29,34.8a6.26,6.26,0,0,1-2.31-2.23,6.4,6.4,0,0,1-5.44,3,6.37,6.37,0,0,1-5.42-3A6.36,6.36,0,0,1,4,29.27v-.13L6.61,10.35H68.37L71,29.27a6.38,6.38,0,0,1-6.35,6.35Zm-4.5-6.35a4.51,4.51,0,0,0,9,.06L66.77,12.2H8.23L5.85,29.33a4.51,4.51,0,0,0,9-.06h1.85a4.51,4.51,0,0,0,9,0h1.85a4.51,4.51,0,0,0,4.5,4.5,4.51,4.51,0,0,0,4.51-4.5h1.85a4.51,4.51,0,0,0,4.5,4.5,4.51,4.51,0,0,0,4.51-4.5h1.85a4.51,4.51,0,0,0,9,0Z"/><path class="cls-2" d="M68.34,5.46H6.57v5.19H68.34Z"/></svg>