<svg width="100" height="101" viewBox="0 0 100 101" fill="none" xmlns="http://www.w3.org/2000/svg">
<g id="Property 1=Mattress, Property 2 =Initial">
<g id="Group 67">
<path id="Vector" d="M84.2452 86.0444H15.3773V95.7209H84.2452V86.0444Z" fill="#B8BFC7"/>
<path id="Vector_2" d="M81.3846 3.10303H19.6154C18.1261 3.10303 16.6978 3.69565 15.6447 4.75073C14.5916 5.80582 14 7.23695 14 8.72907V91.477C14 92.9691 14.5916 94.4 15.6447 95.455C16.6978 96.5101 18.1261 97.103 19.6154 97.103H81.3846C82.8739 97.103 84.3022 96.5101 85.3553 95.455C86.4084 94.4 87 92.9691 87 91.477V8.72907C87 7.23695 86.4084 5.80582 85.3553 4.75073C84.3022 3.69565 82.8739 3.10303 81.3846 3.10303ZM81.3846 93.7274H19.6154C19.0197 93.7274 18.4483 93.4901 18.0271 93.0681C17.6059 92.6461 17.3692 92.0738 17.3692 91.477V88.0338C18.0775 88.3446 18.8422 88.5054 19.6154 88.5063H81.3846C82.158 88.5073 82.9231 88.3464 83.6308 88.0338V91.477C83.6337 91.7744 83.5778 92.0694 83.4663 92.3451C83.3547 92.6207 83.1897 92.8713 82.9809 93.0827C82.772 93.294 82.5234 93.4618 82.2494 93.5763C81.9754 93.6908 81.6815 93.7499 81.3846 93.7499V93.7274ZM83.6308 82.8802C83.6308 83.4771 83.3941 84.0496 82.9729 84.4716C82.5516 84.8937 81.9803 85.1307 81.3846 85.1307H19.6154C19.0197 85.1307 18.4483 84.8937 18.0271 84.4716C17.6059 84.0496 17.3692 83.4771 17.3692 82.8802V8.72907C17.3692 8.13222 17.6059 7.55972 18.0271 7.13768C18.4483 6.71565 19.0197 6.47865 19.6154 6.47865H81.3846C81.9803 6.47865 82.5516 6.71565 82.9729 7.13768C83.3941 7.55972 83.6308 8.13222 83.6308 8.72907V82.8802Z" fill="#253B54"/>
<path id="Vector_3" d="M73.1427 19.6909L70.4661 22.3773L67.7894 19.6909L66.3396 21.1572L69.0051 23.8436L66.3396 26.5299L67.7894 27.985L70.4661 25.2987L73.1427 27.985L74.6038 26.5299L71.9271 23.8436L74.6038 21.1572L73.1427 19.6909Z" fill="#253B54"/>
<path id="Vector_4" d="M52.4843 19.6909L49.8113 22.3773L47.1382 19.6909L45.6792 21.1572L48.3522 23.8436L45.6792 26.5299L47.1382 27.985L49.8113 25.2987L52.4843 27.985L53.9433 26.5299L51.2703 23.8436L53.9433 21.1572L52.4843 19.6909Z" fill="#253B54"/>
<path id="Vector_5" d="M33.2014 19.6909L30.5283 22.3773L27.8553 19.6909L26.3962 21.1572L29.0693 23.8436L26.3962 26.5299L27.8553 27.985L30.5283 25.2987L33.2014 27.985L34.6604 26.5299L31.9873 23.8436L34.6604 21.1572L33.2014 19.6909Z" fill="#253B54"/>
<path id="Vector_6" d="M73.1427 41.8091L70.4661 44.503L67.7894 41.8091L66.3396 43.2734L69.0051 45.9561L66.3396 48.6389L67.7894 50.1032L70.4661 47.4205L73.1427 50.1032L74.6038 48.6389L71.9271 45.9561L74.6038 43.2734L73.1427 41.8091Z" fill="#253B54"/>
<path id="Vector_7" d="M52.4843 41.8091L49.8113 44.503L47.1382 41.8091L45.6792 43.2734L48.3522 45.9561L45.6792 48.6389L47.1382 50.1032L49.8113 47.4205L52.4843 50.1032L53.9433 48.6389L51.2703 45.9561L53.9433 43.2734L52.4843 41.8091Z" fill="#253B54"/>
<path id="Vector_8" d="M33.2014 41.8091L30.5283 44.503L27.8553 41.8091L26.3962 43.2734L29.0693 45.9561L26.3962 48.6389L27.8553 50.1032L30.5283 47.4205L33.2014 50.1032L34.6604 48.6389L31.9873 45.9561L34.6604 43.2734L33.2014 41.8091Z" fill="#253B54"/>
<path id="Vector_9" d="M73.1427 62.5444L70.4661 65.2272L67.7894 62.5444L66.3396 64.0088L69.0051 66.6915L66.3396 69.3742L67.7894 70.8386L70.4661 68.1558L73.1427 70.8386L74.6038 69.3742L71.9271 66.6915L74.6038 64.0088L73.1427 62.5444Z" fill="#253B54"/>
<path id="Vector_10" d="M52.4843 62.5444L49.8113 65.2272L47.1382 62.5444L45.6792 64.0088L48.3522 66.6915L45.6792 69.3742L47.1382 70.8386L49.8113 68.1558L52.4843 70.8386L53.9433 69.3742L51.2703 66.6915L53.9433 64.0088L52.4843 62.5444Z" fill="#253B54"/>
<path id="Vector_11" d="M33.2014 62.5444L30.5283 65.2272L27.8553 62.5444L26.3962 64.0088L29.0693 66.6915L26.3962 69.3742L27.8553 70.8386L30.5283 68.1558L33.2014 70.8386L34.6604 69.3742L31.9873 66.6915L34.6604 64.0088L33.2014 62.5444Z" fill="#253B54"/>
</g>
</g>
</svg>
