<svg width="100" height="101" viewBox="0 0 100 101" fill="none" xmlns="http://www.w3.org/2000/svg">
<g id="Property 1=Box, Property 2=Initial">
<path id="Vector" d="M92 23.9968L50.4157 7.10303L9 22.2287V76.3614L51.9452 94.1031L92 78.0571V23.9968ZM86.677 25.9588L78.247 29.0712L42.2987 13.9816L50.3796 10.9904L86.677 25.9588ZM65.8307 33.6243L29.9065 18.5471L37.2769 15.8223L73.213 30.9117L65.8307 33.6243ZM74.7304 34.218V43.555C74.7279 44.0783 74.5694 44.5888 74.2752 45.0206C73.9811 45.4524 73.5649 45.7856 73.0805 45.977L69.5399 47.3453C69.1498 47.4944 68.7295 47.5459 68.3152 47.4955C67.9009 47.4452 67.505 47.2944 67.1615 47.0562C66.8179 46.8179 66.5371 46.4993 66.343 46.1278C66.149 45.7563 66.0475 45.3429 66.0474 44.9233L65.9391 37.4271L74.7304 34.218ZM24.9208 20.3879L60.8329 35.4651L50.6325 39.2194L14.2026 24.3844L24.9208 20.3879ZM12.6129 73.9273V27.6177L48.3323 42.15V88.6293L12.6129 73.9273ZM88.3871 75.5744L51.9452 90.0218V42.6103L62.3382 38.7833L62.4346 45.0203C62.4484 46.0248 62.7039 47.011 63.1791 47.8947C63.6543 48.7783 64.3351 49.5331 65.1634 50.0947C65.9917 50.6563 66.9428 51.008 67.9356 51.1197C68.9284 51.2315 69.9334 51.0999 70.8646 50.7363L74.3932 49.3677C75.5589 48.9111 76.5611 48.1129 77.2698 47.0763C77.9785 46.0397 78.3609 44.8129 78.3674 43.555V32.8615L88.4112 29.1557L88.3871 75.5744Z" fill="#253B54"/>
<path id="Vector_2" d="M65.8187 33.6369L29.9066 18.5476L37.2769 15.8228L73.201 30.9121L65.8187 33.6369Z" fill="#E2E8EE"/>
<path id="Vector_3" d="M74.7304 34.2183V43.5552C74.7279 44.0786 74.5694 44.589 74.2753 45.0208C73.9811 45.4526 73.565 45.7859 73.0806 45.9773L69.5399 47.3456C69.1498 47.4946 68.7296 47.5462 68.3153 47.4958C67.901 47.4454 67.505 47.2947 67.1615 47.0564C66.818 46.8182 66.5371 46.4996 66.3431 46.1281C66.149 45.7565 66.0476 45.3432 66.0475 44.9235L65.9391 37.4274L74.7304 34.2183Z" fill="#B8BFC7"/>
</g>
</svg>
