<svg width="100" height="101" viewBox="0 0 100 101" fill="none" xmlns="http://www.w3.org/2000/svg">
<g id="Property 1=Table, Property 2=Initial">
<g id="Group 94">
<path id="Vector" d="M81.2492 15.3356C83.0195 15.3356 84.4545 13.8975 84.4545 12.1236C84.4545 10.3497 83.0195 8.91162 81.2492 8.91162C79.479 8.91162 78.0439 10.3497 78.0439 12.1236C78.0439 13.8975 79.479 15.3356 81.2492 15.3356Z" fill="#B8BFC7"/>
<path id="Vector_2" d="M71.1769 19.996C72.6057 19.996 73.764 18.8353 73.764 17.4035C73.764 15.9717 72.6057 14.811 71.1769 14.811C69.7481 14.811 68.5898 15.9717 68.5898 17.4035C68.5898 18.8353 69.7481 19.996 71.1769 19.996Z" fill="#B8BFC7"/>
<path id="Vector_3" d="M5.85339 51.2208C5.85339 49.5243 7.48934 48.1519 9.48671 48.1519H90.5133C92.5107 48.1519 94.1466 49.5243 94.1466 51.2208C94.1466 52.9174 92.5107 54.2898 90.5133 54.2898H9.48671C7.48934 54.2898 5.85339 52.9174 5.85339 51.2208Z" fill="#E2E8EE"/>
<path id="Vector_4" d="M97 51.2194C97 47.9503 94.0896 45.2911 90.5133 45.2911H80.3933C81.6954 44.0182 82.7201 42.4886 83.4028 40.799C84.0854 39.1093 84.4112 37.2962 84.3595 35.474C84.395 32.637 83.5799 29.8545 82.0197 27.4868L81.6583 26.9721H77.7587C77.6965 25.3799 77.7728 23.7854 77.987 22.2065C78.3134 20.3516 78.8166 18.5324 79.4897 16.7738C79.5548 16.7984 79.6184 16.8272 79.68 16.8597C80.4594 17.1169 81.2901 17.1778 82.0985 17.0368C82.907 16.8957 83.6683 16.5572 84.3151 16.0511C84.9619 15.545 85.4743 14.8868 85.8069 14.1351C86.1395 13.3833 86.2821 12.561 86.2221 11.7409C86.1621 10.9208 85.9013 10.1281 85.4627 9.43304C85.0242 8.73797 84.4215 8.16188 83.7079 7.75579C82.9944 7.34969 82.1919 7.12604 81.3716 7.10471C80.5512 7.08338 79.7383 7.26516 79.0047 7.63362C78.4201 7.92131 77.8981 8.32194 77.4688 8.81268C77.0395 9.30342 76.7113 9.87456 76.5032 10.493C76.2088 11.3998 76.1785 12.3718 76.4161 13.2953C76.6536 14.2187 77.1491 15.0552 77.8443 15.7065C77.0546 17.6935 76.4713 19.7567 76.1037 21.8635C75.8763 23.5339 75.7936 25.2209 75.8564 26.9055H74.192C74.1143 24.9805 73.8628 23.0664 73.4406 21.1869C74.0176 20.8487 74.5118 20.3854 74.8869 19.831C75.262 19.2765 75.5086 18.6448 75.6085 17.9824C75.7084 17.3201 75.6591 16.6439 75.4642 16.0031C75.2693 15.3624 74.9338 14.7733 74.4823 14.2793C74.0307 13.7854 73.4746 13.399 72.8547 13.1485C72.2347 12.8979 71.5667 12.7895 70.8995 12.8313C70.2323 12.8731 69.5829 13.064 68.999 13.39C68.415 13.716 67.9112 14.1687 67.5245 14.7152C67.0487 15.3877 66.7664 16.1783 66.7086 17.0007C66.6507 17.8231 66.8194 18.6456 67.1963 19.3784C67.5732 20.1111 68.1439 20.726 68.8458 21.1559C69.5478 21.5858 70.3542 21.814 71.1769 21.8158C71.3195 21.8158 71.4717 21.8158 71.6239 21.8158C71.9845 23.4977 72.2072 25.2064 72.2897 26.9246H68.9512L68.5993 27.4393C67.0392 29.807 66.2241 32.5893 66.2596 35.4263C66.2079 37.2485 66.5336 39.0616 67.2163 40.7513C67.8989 42.4409 68.9236 43.9705 70.2257 45.2434H31.4768V32.2619H18.4368V33.9871C18.1797 33.9377 17.9187 33.9121 17.6569 33.9108C16.5117 33.9108 15.4133 34.3668 14.6035 35.1783C13.7937 35.9897 13.3388 37.0903 13.3388 38.2379C13.3388 39.3856 13.7937 40.4861 14.6035 41.2976C15.4133 42.1091 16.5117 42.5651 17.6569 42.5651C17.9187 42.5638 18.1797 42.5382 18.4368 42.4888V45.2434H9.4867C5.91046 45.2434 3 47.9026 3 51.1717C3 54.4409 5.91046 57.1001 9.4867 57.1001H17.4096L9.24892 88.6005C8.9563 89.7292 9.1231 90.9282 9.71261 91.9336C10.3021 92.939 11.2661 93.6685 12.3924 93.9617C13.5187 94.255 14.7151 94.0878 15.7185 93.4971C16.7218 92.9063 17.4499 91.9404 17.7425 90.8118L24.7238 63.8482H75.2762L82.2575 90.8118C82.5501 91.9404 83.2782 92.9063 84.2815 93.4971C85.2849 94.0878 86.4813 94.255 87.6076 93.9617C88.7339 93.6685 89.6979 92.939 90.2874 91.9336C90.8769 90.9282 91.0437 89.7292 90.7511 88.6005L82.5904 57.1001H90.5133C94.0896 57.1477 97 54.4886 97 51.2194ZM78.3103 11.1887C78.5141 10.5711 78.9067 10.0333 79.4325 9.65177C79.9583 9.27027 80.5907 9.06445 81.2398 9.06329C81.5628 9.06493 81.8836 9.11628 82.1909 9.21571C82.9425 9.49056 83.5585 10.0468 83.9093 10.7673C84.2602 11.4878 84.3186 12.3166 84.0722 13.0793C83.8259 13.8421 83.294 14.4794 82.5884 14.8574C81.8828 15.2353 81.0585 15.3244 80.2887 15.1059C79.9025 14.9786 79.5451 14.7763 79.237 14.5104C78.9289 14.2446 78.6761 13.9205 78.4933 13.5566C78.3104 13.1927 78.2009 12.7962 78.1712 12.3899C78.1414 11.9835 78.1919 11.5754 78.3199 11.1887H78.3103ZM69.6646 19.5094C69.2503 19.211 68.9333 18.7964 68.7534 18.318C68.5736 17.8395 68.5389 17.3185 68.6538 16.8204C68.7686 16.3222 69.0279 15.8693 69.399 15.5184C69.7701 15.1676 70.2364 14.9345 70.7394 14.8485C70.8819 14.8391 71.0248 14.8391 71.1674 14.8485C71.5752 14.8477 71.9775 14.9436 72.3413 15.1282C72.7052 15.3128 73.0203 15.5809 73.2611 15.9108C73.5018 16.2407 73.6613 16.6231 73.7265 17.0265C73.7917 17.43 73.7608 17.8432 73.6364 18.2323C73.5119 18.6215 73.2974 18.9757 73.0103 19.266C72.7232 19.5563 72.3717 19.7744 71.9844 19.9026C71.5972 20.0308 71.1852 20.0656 70.782 20.0038C70.3788 19.9421 69.9959 19.7858 69.6646 19.5475V19.5094ZM68.6183 35.474C68.5905 33.3285 69.1392 31.2148 70.2067 29.3549H80.3743C81.4418 31.2148 81.9905 33.3285 81.9627 35.474C81.9627 40.7066 78.9666 45.0051 75.3048 45.0051C71.6429 45.0051 68.6374 40.7066 68.6374 35.474H68.6183ZM20.7956 34.6924H29.0799V45.2529H20.7956V34.6924ZM17.6378 40.7066C16.9971 40.7066 16.3826 40.4516 15.9296 39.9976C15.4765 39.5436 15.222 38.9277 15.222 38.2856C15.222 37.6436 15.4765 37.0277 15.9296 36.5737C16.3826 36.1197 16.9971 35.8647 17.6378 35.8647C17.904 35.8679 18.1677 35.9164 18.4178 36.0078V40.5635C18.1737 40.6528 17.9167 40.7012 17.6569 40.7066H17.6378ZM5.83437 51.1908C5.83437 49.4943 7.47029 48.1218 9.46766 48.1218H90.4943C92.4917 48.1218 94.1276 49.4943 94.1276 51.1908C94.1276 52.8874 92.4917 54.2598 90.4943 54.2598H9.4867C7.48933 54.2884 5.85338 52.916 5.85338 51.2194L5.83437 51.1908ZM14.9557 90.1065C14.8866 90.3862 14.7399 90.6403 14.5325 90.8399C14.3252 91.0395 14.0656 91.1763 13.7839 91.2341C13.5023 91.292 13.21 91.2686 12.941 91.1669C12.672 91.0651 12.4373 90.8891 12.264 90.6591C12.119 90.4747 12.0193 90.2587 11.9731 90.0285C11.9268 89.7984 11.9352 89.5607 11.9977 89.3344L20.263 57.3956H23.4302L14.9557 90.1065ZM87.736 90.7068C87.5627 90.9368 87.328 91.1128 87.059 91.2146C86.79 91.3163 86.4977 91.3397 86.2161 91.2818C85.9344 91.224 85.6748 91.0872 85.4675 90.8876C85.2601 90.688 85.1134 90.4336 85.0443 90.154L76.5698 57.4433H79.737L88.0023 89.3821C88.0648 89.6084 88.0732 89.8461 88.0269 90.0762C87.9807 90.3064 87.881 90.5224 87.736 90.7068ZM74.5534 61.0554H25.4656L26.4738 57.1669H73.5262L74.5534 61.0554Z" fill="#253B54"/>
</g>
</g>
</svg>
