<svg id="Layer_1" data-name="Layer 1" xmlns="http://www.w3.org/2000/svg" viewBox="0 0 75 75"><defs><style>.cls-1{fill:#fff;}.cls-2{fill:#253b54;}</style></defs><g id="Property_1_small-move_Property_2_initial" data-name="Property 1=small-move, Property 2=initial"><path class="cls-1" d="M62.54,31.15v4.16H12.45V31.15a4.85,4.85,0,0,1,.85,2.74l0-13.56A7.65,7.65,0,0,1,21,12.68H54a7.65,7.65,0,0,1,7.65,7.65V33.89A4.92,4.92,0,0,1,62.06,32,5.48,5.48,0,0,1,62.54,31.15Z"/><path id="Vector_2" data-name="Vector 2" class="cls-2" d="M63.11,30.46a4.64,4.64,0,0,0-.57.69,5.48,5.48,0,0,0-.48.89,4.92,4.92,0,0,0-.37,1.85v.56H13.3v-.56a4.85,4.85,0,0,0-.85-2.74,5.36,5.36,0,0,0-.57-.69l-.24-.21v5.9H63.39V30.2A3.48,3.48,0,0,0,63.11,30.46Z"/><path class="cls-2" d="M63.43,20.33l0,9.87a3.48,3.48,0,0,0-.3.26,4.64,4.64,0,0,0-.57.69,5.48,5.48,0,0,0-.48.89,4.92,4.92,0,0,0-.37,1.85V20.33A7.65,7.65,0,0,0,54,12.68H21a7.65,7.65,0,0,0-7.65,7.65l0,13.56a4.85,4.85,0,0,0-.85-2.74,5.36,5.36,0,0,0-.57-.69l-.24-.21V20.33A9.34,9.34,0,0,1,21,11H54.07a9.34,9.34,0,0,1,9.36,9.35Z"/><path id="Vector_3" data-name="Vector 3" class="cls-2" d="M62.54,35.3H12.45v9.34H62.54Z"/><path class="cls-1" d="M70.8,33.89V54.54H4.2l0-20.65a3.14,3.14,0,0,1,3.15-3.14h1.1a3.14,3.14,0,0,1,3.15,3.14V31.44a3.4,3.4,0,0,1,.55.92,3.88,3.88,0,0,1,.26,1,3.6,3.6,0,0,1,0,.56v10.9H62.54V33.89a3.88,3.88,0,0,1,.31-1.53,3.62,3.62,0,0,1,.55-.93V33.8a3.07,3.07,0,0,1,.91-2.13,3.15,3.15,0,0,1,2.23-.92h1.11a3.14,3.14,0,0,1,3.15,3.14Z"/><path id="Vector_5" data-name="Vector 5" class="cls-2" d="M63.11,30.46a4.64,4.64,0,0,0-.57.69,5.48,5.48,0,0,0-.48.89,4.92,4.92,0,0,0-.37,1.85v10H13.3v-10a4.85,4.85,0,0,0-.85-2.74,5.36,5.36,0,0,0-.57-.69l-.24-.21V45.64H63.39V33.89a.28.28,0,0,1,0-.09V30.2A3.48,3.48,0,0,0,63.11,30.46Z"/><path class="cls-2" d="M72.5,33.89V56.24H69.86L69.14,64H66.55l-.72-7.78H9L8.25,64H5.65l-.72-7.78H2.5V33.89a4.83,4.83,0,0,1,4.84-4.84H8.46a4.82,4.82,0,0,1,3.18,1.2v3.64a3.14,3.14,0,0,0-3.15-3.14H7.39a3.14,3.14,0,0,0-3.15,3.14l0,20.65H70.8V33.89a3.14,3.14,0,0,0-3.15-3.14H66.54a3.15,3.15,0,0,0-2.23.92,3.07,3.07,0,0,0-.91,2.13V30.2a4.62,4.62,0,0,1,1.27-.78,4.75,4.75,0,0,1,1.86-.37h1.11a4.83,4.83,0,0,1,4.85,4.84Z"/><path id="Vector_8" data-name="Vector 8" class="cls-2" d="M49.29,26.79A2.27,2.27,0,1,0,47,24.52,2.27,2.27,0,0,0,49.29,26.79Z"/><path id="Vector_9" data-name="Vector 9" class="cls-2" d="M25.7,26.79a2.27,2.27,0,1,0-2.27-2.27A2.27,2.27,0,0,0,25.7,26.79Z"/></g></svg>