<svg id="Layer_1" data-name="Layer 1" xmlns="http://www.w3.org/2000/svg" xmlns:xlink="http://www.w3.org/1999/xlink" viewBox="0 0 75 75"><defs><style>.cls-1{fill:none;}.cls-2{clip-path:url(#clip-path);}.cls-3,.cls-5{fill:#fff;}.cls-4{fill:#253b54;}.cls-5{fill-rule:evenodd;}</style><clipPath id="clip-path"><rect class="cls-1" x="1.71" y="11.36" width="71.58" height="52.29"/></clipPath></defs><g class="cls-2"><g id="Frame"><path id="Vector" class="cls-3" d="M72.41,32.83H32.64V62.76H72.41Z"/><path id="Vector_2" data-name="Vector 2" class="cls-4" d="M73.28,63.65H31.75V32H73.28ZM33.52,61.88h38V33.72h-38Z"/><path id="Vector_3" data-name="Vector 3" class="cls-3" d="M66.21,12.24H38.84V32.83H66.21Z"/><path id="Vector_4" data-name="Vector 4" class="cls-4" d="M67.08,33.72H37.92V11.36H67.08ZM39.69,32H65.31V13.12H39.69Z"/><path id="Vector_5" data-name="Vector 5" class="cls-4" d="M21.86,41.45H17.5V57.74h4.36Z"/><path id="Vector_6" data-name="Vector 6" class="cls-5" d="M13.81,17.84H25.54a3.56,3.56,0,0,1,2,.65,3.5,3.5,0,0,1,1.29,1.7L36.4,41.45H3l7.53-21.26a3.63,3.63,0,0,1,1.29-1.7,3.56,3.56,0,0,1,2-.65Z"/><path id="Vector_7" data-name="Vector 7" class="cls-4" d="M37.65,42.34H1.71l8-22.44a4.49,4.49,0,0,1,1.61-2.13A4.41,4.41,0,0,1,13.82,17H25.55a4.43,4.43,0,0,1,4.17,2.94ZM4.21,40.57H35.14L28.07,20.49a2.63,2.63,0,0,0-2.5-1.77H13.81a2.63,2.63,0,0,0-2.5,1.77Z"/><path id="Vector_8" data-name="Vector 8" class="cls-5" d="M28.36,62.77A5.37,5.37,0,0,0,26.81,59a5.3,5.3,0,0,0-3.75-1.59H16.38A5.31,5.31,0,0,0,12.62,59a5.37,5.37,0,0,0-1.55,3.77H28.36Z"/><path id="Vector_9" data-name="Vector 9" class="cls-4" d="M29.24,63.65H10.12v-.88a6.25,6.25,0,0,1,6.19-6.24H23a6.23,6.23,0,0,1,6.18,6.24ZM12,61.88H27.39a4.56,4.56,0,0,0-1.55-2.57,4.49,4.49,0,0,0-2.83-1H16.38A4.46,4.46,0,0,0,12,61.88Z"/><path id="Vector_10" data-name="Vector 10" class="cls-4" d="M55.78,12.24H49.27v10.3h6.51Z"/><path id="Vector_11" data-name="Vector 11" class="cls-4" d="M57.11,32.83H47.93v15h9.18Z"/></g></g></svg>