<svg id="Layer_1" data-name="Layer 1" xmlns="http://www.w3.org/2000/svg" viewBox="0 0 75 75"><defs><style>.cls-1{fill:#fff;}.cls-2,.cls-3{fill:#253b54;}.cls-3{fill-rule:evenodd;}.cls-4{fill:#f8faff;}</style></defs><g id="Property_1_labor-only_Property_2_initial" data-name="Property 1=labor-only, Property 2=initial"><g id="Group_203" data-name="Group 203"><ellipse id="Ellipse_62" data-name="Ellipse 62" class="cls-1" cx="37.18" cy="23.14" rx="12.5" ry="11.97"/><path id="Vector" class="cls-2" d="M37.13,36.81c-7.38,0-13.38-6.86-13.38-15.29a20.14,20.14,0,0,1,.15-2.45h1.82a18.36,18.36,0,0,0-.27,2.45c0,7.5,5.24,13.6,11.7,13.6S48.86,29,48.86,21.52a20.05,20.05,0,0,0-.19-2.45h1.72a16.71,16.71,0,0,1,.16,2.45C50.52,30,44.52,36.81,37.13,36.81Z"/><rect id="Rectangle_252" data-name="Rectangle 252" class="cls-1" x="16.92" y="52.08" width="41.48" height="6.75"/><path id="Vector_2" data-name="Vector 2" class="cls-3" d="M21.15,19.19a15.9,15.9,0,0,1,1.1-6.14,15.48,15.48,0,0,1,3.38-5.24A15.72,15.72,0,0,1,51.5,13.05a16.08,16.08,0,0,1,1.09,6.14Z"/><path id="Vector_3" data-name="Vector 3" class="cls-2" d="M58.35,17.51H49.68v1.68h8.67Z"/><path id="Vector_4" data-name="Vector 4" class="cls-1" d="M21.57,68l2.31.12a2.05,2.05,0,0,0,1.43-.55A2.08,2.08,0,0,0,26,66.2V58.62a2.23,2.23,0,0,0-.42-1.19,2.2,2.2,0,0,0-1-.75l-3-.56v-7H52.7v7.21l-2.24.33a1.77,1.77,0,0,0-1.14.7,1.82,1.82,0,0,0-.33,1.3v7.78a2,2,0,0,0,.62,1.14,2,2,0,0,0,1.18.54h1.92v3H21.57V68Z"/><path id="Vector_5" data-name="Vector 5" class="cls-2" d="M53.54,71.94H20.73V67.12l3.2.16a1.17,1.17,0,0,0,.81-.32,1.25,1.25,0,0,0,.39-.79V58.59a1.42,1.42,0,0,0-.79-1.12l-3.62-.67V48.25H53.54V57l-2.95.44c-.48.11-.74.32-.76,1.19v7.75c0,.33.49.73,1,.84h2.68ZM22.41,70.26H51.86V68.94h-1.2a2.82,2.82,0,0,1-1.68-.8,2.91,2.91,0,0,1-.84-1.67V58.66a2.66,2.66,0,0,1,.52-1.83,2.63,2.63,0,0,1,1.61-1l1.58-.24V50H22.39v5.47l2.31.42a3,3,0,0,1,1.49,1.06,3,3,0,0,1,.61,1.72v7.59a2.92,2.92,0,0,1-3,2.77L22.4,68.9Z"/><path id="Vector_6" data-name="Vector 6" class="cls-1" d="M56.43,53.78s.48,2.17-5.53,2.75a2.13,2.13,0,0,0-1.37.69A2.19,2.19,0,0,0,49,58.66V66a2.15,2.15,0,0,0,.61,1.5,2.1,2.1,0,0,0,1.48.65,21.13,21.13,0,0,0,10.14-2.36A8.74,8.74,0,0,0,65.85,58V54.46a18.53,18.53,0,0,0-5.41-13.1c-3.46-3.48-9.16-5.43-14.06-5.43H28.57c-4.9,0-10.6,2-14.06,5.43A18.53,18.53,0,0,0,9.1,54.46V58a8.77,8.77,0,0,0,4.64,7.77,21.12,21.12,0,0,0,10.13,2.36,2.19,2.19,0,0,0,1.49-.65A2.15,2.15,0,0,0,26,66v-7.3a2.15,2.15,0,0,0-.55-1.43,2.19,2.19,0,0,0-1.37-.7c-6-.57-5.53-2.74-5.53-2.74"/><path id="Vector_7" data-name="Vector 7" class="cls-2" d="M51.33,68.94h-.26A3,3,0,0,1,49,68.05a3,3,0,0,1-.85-2.1V58.66a3,3,0,0,1,2.68-3c3.92-.38,4.79-1.45,4.78-1.8l1.68-.29a1.9,1.9,0,0,1-.05.82,1.94,1.94,0,0,1-.37.73C56,56.33,54,57.07,51,57.37a1.31,1.31,0,0,0-.82.42,1.34,1.34,0,0,0-.34.87V66a1.29,1.29,0,0,0,.37.91,1.27,1.27,0,0,0,.89.4A20,20,0,0,0,60.82,65,7.9,7.9,0,0,0,65,58V54.46A17.71,17.71,0,0,0,59.85,42c-3.31-3.31-8.79-5.18-13.47-5.18H27.57A17.65,17.65,0,0,0,9.94,54.46V58a7.9,7.9,0,0,0,4.19,7,20.23,20.23,0,0,0,9.74,2.27,1.27,1.27,0,0,0,.89-.4,1.29,1.29,0,0,0,.37-.91V58.68a1.33,1.33,0,0,0-.33-.87,1.28,1.28,0,0,0-.82-.42c-3-.3-5-1-5.88-2.22a1.93,1.93,0,0,1-.42-1.56l1.68.36c0,.28.84,1.36,4.79,1.74a2.95,2.95,0,0,1,2.67,3V66a3,3,0,0,1-.85,2.1A2.93,2.93,0,0,1,23.9,69a22.27,22.27,0,0,1-10.53-2.45A9.55,9.55,0,0,1,9.64,63a9.72,9.72,0,0,1-1.37-5V54.48a19.41,19.41,0,0,1,5.66-13.7c3.62-3.63,9.53-5.68,14.66-5.68H46.41c5.13,0,11,2,14.66,5.68a19.41,19.41,0,0,1,5.66,13.7V58a9.56,9.56,0,0,1-5.1,8.51A21.71,21.71,0,0,1,51.33,68.94Z"/><path id="Vector_8" data-name="Vector 8" class="cls-4" d="M26,66.24a3.66,3.66,0,0,0,2.61-1.09A3.7,3.7,0,0,0,26,58.83Z"/><path id="Vector_9" data-name="Vector 9" class="cls-2" d="M26,67.08h-.84V58H26a4.49,4.49,0,0,1,1.73.35,4.56,4.56,0,0,1,1.47,1,4.75,4.75,0,0,1,1,1.48,4.62,4.62,0,0,1,0,3.48,4.63,4.63,0,0,1-1,1.48,4.41,4.41,0,0,1-1.47,1,4.49,4.49,0,0,1-1.73.35Zm.84-7.28v5.47a2.86,2.86,0,0,0,0-5.47Z"/><path id="Vector_10" data-name="Vector 10" class="cls-4" d="M48.88,66a3.45,3.45,0,0,1-1.46-.23A3.53,3.53,0,0,1,46.16,65a3.72,3.72,0,0,1-.85-1.22,3.7,3.7,0,0,1,0-2.92,3.72,3.72,0,0,1,.85-1.22,3.53,3.53,0,0,1,1.26-.79,3.45,3.45,0,0,1,1.46-.23Z"/><path id="Vector_11" data-name="Vector 11" class="cls-2" d="M49.72,66.85h-.84a4.54,4.54,0,0,1-4.36-2.75,4.51,4.51,0,0,1,0-3.58,4.5,4.5,0,0,1,2.57-2.47,4.54,4.54,0,0,1,1.79-.28h.84ZM48,59.58a2.85,2.85,0,0,0-1.46,1,2.86,2.86,0,0,0,0,3.4A2.85,2.85,0,0,0,48,65Z"/><path id="Vector_12" data-name="Vector 12" class="cls-2" d="M53.54,56.31H51.86V49.93H22.41v6.18H20.73V48.25H53.54Z"/><path id="Vector_13" data-name="Vector 13" class="cls-1" d="M51.72,50H22.52v4.1h29.2Z"/><path id="Vector_14" data-name="Vector 14" class="cls-2" d="M40.6,48.25H33.67V60.56H40.6Z"/><path id="Vector_15" data-name="Vector 15" class="cls-2" d="M38.12,27.61A2.12,2.12,0,0,1,36.65,27,2.18,2.18,0,0,1,36,25.51V22.77h1.68v2.74a.58.58,0,0,0,0,.18.53.53,0,0,0,.12.14.44.44,0,0,0,.15.08.54.54,0,0,0,.18,0l.59-.11.33,1.68-.59.12A2.84,2.84,0,0,1,38.12,27.61Z"/><path id="Vector_16" data-name="Vector 16" class="cls-2" d="M39.52,32.72a4.42,4.42,0,0,1-1.79-.41,4.66,4.66,0,0,1-1.48-1.09l1.24-1.14A2.58,2.58,0,0,0,39,31a2.62,2.62,0,0,0,1.7-.19,3.3,3.3,0,0,0,1.42-1.11A3.36,3.36,0,0,0,42.7,28l1.68.3a4.94,4.94,0,0,1-3,4A4.31,4.31,0,0,1,39.52,32.72Z"/></g></g></svg>