<svg id="Layer_1" data-name="Layer 1" xmlns="http://www.w3.org/2000/svg" viewBox="0 0 75 75"><defs><style>.cls-1{fill:#fff;}.cls-1,.cls-2{fill-rule:evenodd;}.cls-2,.cls-3{fill:#253b54;}</style></defs><g id="Property_1_haul-away_Property_2_initial" data-name="Property 1=haul-away, Property 2=initial"><g id="Group_200" data-name="Group 200"><path id="Vector" class="cls-1" d="M29.94,51V8.92A4.06,4.06,0,0,1,34,4.86H66.94A4,4,0,0,1,69.81,6,4.1,4.1,0,0,1,71,8.92V65.51a4.06,4.06,0,0,1-4.06,4.06H34a4.08,4.08,0,0,1-4.07-4.06"/><path id="Vector_Stroke_" data-name="Vector (Stroke)" class="cls-2" d="M34,5.86a3.06,3.06,0,0,0-3.07,3.06V51h-2V8.92h0A5.07,5.07,0,0,1,34,3.86H66.94A5.05,5.05,0,0,1,72,8.92V65.51a5.07,5.07,0,0,1-5.06,5.06H34a5.09,5.09,0,0,1-5.07-5.06h2A3.07,3.07,0,0,0,34,68.57H66.94a3.07,3.07,0,0,0,2.16-.9,3,3,0,0,0,.9-2.16V8.92a3.06,3.06,0,0,0-3.06-3.06Z"/><path id="Vector_2" data-name="Vector 2" class="cls-3" d="M70,63.08H31v2.81a3,3,0,0,0,3,3H67a3,3,0,0,0,3-3Z"/><path id="Vector_3" data-name="Vector 3" class="cls-1" d="M26.11,40.4c1.47,5.55,12,10.57,12,17.39S31.9,70.14,24.23,70.14H17.89C10.22,70.14,4,64.61,4,57.79S13.65,44.94,19.6,40.4l-2.84-5.54a1.53,1.53,0,0,1,.07-.79,1.57,1.57,0,0,1,.47-.64,1.52,1.52,0,0,1,.73-.3,1.43,1.43,0,0,1,.79.11l1.79.62a.86.86,0,0,0,.42,0,.85.85,0,0,0,.4-.15l2.15-1.48a1.66,1.66,0,0,1,2.28.38l.68,1a.91.91,0,0,0,.53.35.87.87,0,0,0,.63-.09c1.2-.66,2.68.34,2.3,1.54Z"/><path id="Vector_Stroke__2" data-name="Vector (Stroke)_2" class="cls-2" d="M24.63,33a.68.68,0,0,0-.48.1h0L22,34.59a2.05,2.05,0,0,1-.82.31,1.87,1.87,0,0,1-.88-.09h0l-1.83-.63,0,0a.44.44,0,0,0-.25,0,.43.43,0,0,0-.24.1.41.41,0,0,0-.15.21.33.33,0,0,0,0,.15l3.13,6.11-.66.51c-.84.63-1.72,1.29-2.64,2A83.72,83.72,0,0,0,10.25,49C7.11,51.89,5,54.84,5,57.79,5,64,10.66,69.14,17.89,69.14h6.34c7.23,0,12.88-5.18,12.88-11.35a7.68,7.68,0,0,0-1.5-4.25A28.8,28.8,0,0,0,32,49.33l-1-1c-1.07-1-2.15-2.1-3.07-3.15a11.7,11.7,0,0,1-2.71-4.5L25,40.18l4-5.14a.08.08,0,0,1,0,0,.39.39,0,0,0-.17-.18.67.67,0,0,0-.7,0l-.48-.88.47.89a1.94,1.94,0,0,1-1.32.18,1.9,1.9,0,0,1-1.11-.73l0,0-.68-1A.6.6,0,0,0,24.63,33Zm2.67,0-.62-.91h0A2.65,2.65,0,0,0,25,31a2.7,2.7,0,0,0-1.95.44L20.9,32.91l-1.72-.6a2.51,2.51,0,0,0-1.27-.18,2.52,2.52,0,0,0-2,1.59,2.5,2.5,0,0,0-.11,1.33l0,.14,2.53,4.92-1.86,1.37a87.4,87.4,0,0,0-7.58,6C5.71,50.46,3,53.93,3,57.79c0,7.48,6.78,13.35,14.89,13.35h6.34c8.11,0,14.88-5.87,14.88-13.35a9.62,9.62,0,0,0-1.84-5.36,30.68,30.68,0,0,0-3.9-4.52l-1.1-1.07c-1.05-1-2.05-2-2.91-3a10.84,10.84,0,0,1-2.14-3.23l3.68-4.68.05-.17a2.28,2.28,0,0,0-.95-2.6A2.67,2.67,0,0,0,27.3,33Z"/><path id="Vector_4" data-name="Vector 4" class="cls-3" d="M70.4,37.21H30.61v2H70.4Z"/><path id="Vector_5" data-name="Vector 5" class="cls-3" d="M66.53,26V18.67h-2V26Z"/><path id="Vector_6" data-name="Vector 6" class="cls-3" d="M56.9,42.41H44.05v2H56.9Z"/><path id="Vector_Stroke__3" data-name="Vector (Stroke)_3" class="cls-2" d="M20.15,39.48a9.42,9.42,0,0,0,6.22.29L27,41.68a11.35,11.35,0,0,1-7.56-.35Z"/><path id="Vector_7" data-name="Vector 7" class="cls-2" d="M59.88,56.14a1.71,1.71,0,0,1,.56.35,1.61,1.61,0,0,1,.37.56,1.59,1.59,0,0,1,.11.65,1.75,1.75,0,0,1-.18.64c-.43.89-1.26.84-2.17.52s-1.53-.79-1.1-1.68a2,2,0,0,1,1-1A2,2,0,0,1,59.88,56.14Z"/><path id="Vector_8" data-name="Vector 8" class="cls-2" d="M65.69,57.18c.94-.41,1.66.93,2,1.79s.36,1.8-.66,2-2,0-2.32-.8S64.75,57.58,65.69,57.18Z"/><path id="Vector_9" data-name="Vector 9" class="cls-2" d="M65.66,52.4c1,1.5-2.12,3.17-4,3S57.88,53.27,59,51.69c1.31-1.91,2.12-3.17,4-3S64,49.83,65.66,52.4Z"/><path id="Vector_10" data-name="Vector 10" class="cls-2" d="M52.94,5.83H33.36c2.23,6.73,4.52,7,11.57,3.89"/></g></g></svg>