<svg width="14" height="22" viewBox="0 0 14 22" fill="none" xmlns="http://www.w3.org/2000/svg">
<path d="M6.99708 3C5.14134 3 3.36161 3.74358 2.0494 5.06716C0.737191 6.39074 0 8.18589 0 10.0577C0 14.8822 6.3182 20.9227 6.58809 21.0908C6.71147 21.169 6.85425 21.2105 7 21.2105C7.14574 21.2105 7.28853 21.169 7.41191 21.0908C7.6818 20.9227 14 14.883 14 10.0577C14 8.18589 13.2628 6.39074 11.9506 5.06716C10.6384 3.74358 8.85865 3 7.00291 3H6.99708Z" fill="#011631"/>
<path d="M6.40958 6.87793H7.57058L10.3426 13.2499H8.75858L8.20958 11.8999H5.73458L5.20358 13.2499H3.65558L6.40958 6.87793ZM6.94958 8.73193L6.17558 10.7119H7.73258L6.94958 8.73193Z" fill="white"/>
</svg>
