<svg width="14" height="22" viewBox="0 0 14 22" fill="none" xmlns="http://www.w3.org/2000/svg">
<path d="M6.99708 3C5.14134 3 3.36161 3.74358 2.0494 5.06716C0.737191 6.39074 0 8.18589 0 10.0577C0 14.8822 6.3182 20.9227 6.58809 21.0908C6.71147 21.169 6.85425 21.2105 7 21.2105C7.14574 21.2105 7.28853 21.169 7.41191 21.0908C7.6818 20.9227 14 14.883 14 10.0577C14 8.18589 13.2628 6.39074 11.9506 5.06716C10.6384 3.74358 8.85865 3 7.00291 3H6.99708Z" fill="#011631"/>
<path d="M4.79999 6.87793H7.17599C7.45199 6.87793 7.72799 6.89893 8.00399 6.94093C8.28599 6.97693 8.53799 7.05493 8.75999 7.17493C8.98199 7.28893 9.16199 7.45093 9.29999 7.66093C9.43799 7.87093 9.50699 8.14993 9.50699 8.49793C9.50699 8.85793 9.40499 9.15793 9.20099 9.39793C9.00299 9.63193 8.73899 9.79993 8.40899 9.90193V9.91993C8.61899 9.94993 8.80799 10.0099 8.97599 10.0999C9.14999 10.1839 9.29699 10.2949 9.41699 10.4329C9.54299 10.5649 9.63899 10.7209 9.70499 10.9009C9.77099 11.0809 9.80399 11.2729 9.80399 11.4769C9.80399 11.8129 9.73199 12.0949 9.58799 12.3229C9.44399 12.5449 9.25799 12.7249 9.02999 12.8629C8.80199 13.0009 8.54399 13.0999 8.25599 13.1599C7.97399 13.2199 7.69199 13.2499 7.40999 13.2499H4.79999V6.87793ZM6.20399 9.42493H7.22099C7.32899 9.42493 7.43399 9.41293 7.53599 9.38893C7.64399 9.36493 7.73999 9.32593 7.82399 9.27193C7.90799 9.21793 7.97399 9.14593 8.02199 9.05593C8.07599 8.96593 8.10299 8.85793 8.10299 8.73193C8.10299 8.59993 8.07299 8.49193 8.01299 8.40793C7.95899 8.31793 7.88699 8.24893 7.79699 8.20093C7.70699 8.15293 7.60499 8.11993 7.49099 8.10193C7.37699 8.07793 7.26599 8.06593 7.15799 8.06593H6.20399V9.42493ZM6.20399 12.0619H7.46399C7.57199 12.0619 7.67999 12.0499 7.78799 12.0259C7.90199 12.0019 8.00399 11.9599 8.09399 11.8999C8.18399 11.8399 8.25599 11.7619 8.30999 11.6659C8.36999 11.5699 8.39999 11.4529 8.39999 11.3149C8.39999 11.1649 8.36099 11.0449 8.28299 10.9549C8.21099 10.8589 8.11799 10.7869 8.00399 10.7389C7.88999 10.6909 7.76699 10.6579 7.63499 10.6399C7.50299 10.6219 7.37999 10.6129 7.26599 10.6129H6.20399V12.0619Z" fill="white"/>
</svg>
