<svg width="101" height="101" viewBox="0 0 101 101" fill="none" xmlns="http://www.w3.org/2000/svg">
<g id="Property 1=Chair, Property 2=Initial">
<g id="Group 90">
<path id="Vector" d="M71.3564 57.8188H28.4523V74.6566H71.3564V57.8188Z" fill="#B8BFC7"/>
<path id="Vector_2" d="M71.3564 75.8589H28.4523V92.6966H71.3564V75.8589Z" fill="#E2E8EE"/>
<path id="Vector_3" d="M19.5007 40.1142C20.6332 40.1142 21.7547 40.3394 22.801 40.7768C23.8472 41.2142 24.7976 41.8551 25.5978 42.6632C26.3981 43.4713 27.0325 44.4307 27.4647 45.4862C27.897 46.5417 28.1186 47.6726 28.1169 48.8146V91.1606H10.9105V48.8146C10.9105 47.672 11.1337 46.5408 11.5674 45.4852C12.001 44.4297 12.6367 43.4705 13.438 42.6626C14.2393 41.8546 15.1906 41.2137 16.2375 40.7765C17.2845 40.3393 18.4065 40.1142 19.5398 40.1142H19.5007ZM19.5398 36.1714C16.2151 36.1749 13.0275 37.508 10.6766 39.8784C8.32571 42.2487 7.00345 45.4624 7 48.8146V95.1034H32.0274V48.8146C32.024 45.4647 30.7035 42.2528 28.3554 39.8829C26.0073 37.5129 22.8231 36.1783 19.5007 36.1714H19.5398Z" fill="#253B54"/>
<path id="Vector_4" d="M72.4805 72.5083H28.5067V76.7128H72.4805V72.5083Z" fill="#253B54"/>
<path id="Vector_5" d="M20.4775 39.4344C21.2696 39.4346 22.0576 39.5505 22.8173 39.7785V21.2536C22.8173 18.2707 23.9813 15.4098 26.0534 13.3005C28.1255 11.1913 30.9358 10.0064 33.8661 10.0064H68.3255C71.2548 10.0099 74.0631 11.1959 76.1344 13.3044C78.2057 15.4129 79.3709 18.2718 79.3743 21.2536V39.7785C80.1337 39.5487 80.9219 39.4328 81.7141 39.4344C82.2372 39.4357 82.7592 39.4843 83.2739 39.5798V21.3199C83.2705 17.2852 81.6944 13.4166 78.8918 10.5637C76.0892 7.71072 72.289 6.10653 68.3255 6.10303H33.8661C29.9026 6.10653 26.1024 7.71072 23.2998 10.5637C20.4972 13.4166 18.9212 17.2852 18.9177 21.3199V39.5798C19.4324 39.4843 19.9544 39.4357 20.4775 39.4344Z" fill="#253B54"/>
<path id="Vector_6" d="M72.4805 56.5161H28.5067V60.7206H72.4805V56.5161Z" fill="#253B54"/>
<path id="Vector_7" d="M72.4934 91.1724H28.5067H22.2637H18.3699V95.1018H22.2637H78.7364H82.6302V91.1724H78.7364H72.4934Z" fill="#253B54"/>
<path id="Vector_8" d="M81.4864 40.1142C83.7702 40.1142 85.9605 41.0309 87.5755 42.6626C89.1904 44.2942 90.0977 46.5071 90.0977 48.8146V91.1606H72.8751V48.8146C72.8751 46.5071 73.7823 44.2942 75.3973 42.6626C77.0122 41.0309 79.2025 40.1142 81.4864 40.1142ZM81.4864 36.1714C78.1697 36.1783 74.9907 37.5126 72.6454 39.8822C70.3002 42.2518 68.9795 45.4635 68.9727 48.8146V95.1034H94.0001V48.8146C93.9932 45.4635 92.6726 42.2518 90.3273 39.8822C87.982 37.5126 84.8031 36.1783 81.4864 36.1714Z" fill="#253B54"/>
</g>
</g>
</svg>
